{"title":"Out. Of.Time.2003.DvDRipXvid.IARG","uid":6497112,"size":734384174,"categoryP":"video","categoryS":"movies","magnet":"?xt=urn:btih:c8b408e61f9978bc2c22af970c6b9740df598124&amp;dn=Out.+Of.Time.2003.DvDRipXvid.IARG&amp;tr=udp%3A%2F%2Ftracker.openbittorrent.com%3A80&amp;tr=udp%3A%2F%2Fopen.demonii.com%3A1337&amp;tr=udp%3A%2F%2Ftracker.coppersurfer.tk%3A6969&amp;tr=udp%3A%2F%2Fexodus.desync.com%3A6969","seeders":3,"leechers":1,"uploader":"scoobey","files":-1,"time":1309112930,"description":"Out. Of.Time.2003.DvDRipXvid.IARG\n &lt;a href=&quot;\nhttp://www.imdb.com/title/tt0313443/&quot; rel=&quot;nofollow&quot; target=&quot;_NEW&quot;&gt;\nhttp://www.imdb.com/title/tt0313443/&lt;/a&gt;\n\nOut of Time  (2003)\nPG_13    -  Crime | Drama | Thriller   -  3 October 2003 (USA) \nENGLISH\n &lt;a href=&quot;\nhttp://i1178.photobucket.com/albums/x374/IARG1/outoftime2003.jpg&quot; rel=&quot;nofollow&quot; target=&quot;_NEW&quot;&gt;\nhttp://i1178.photobucket.com/albums/x374/IARG1/outoftime2003.jpg&lt;/a&gt;\n\nA Florida police chief must solve a vicious double homicide before he himself falls under suspicion.\n &lt;a href=&quot;\nhttp://i1178.photobucket.com/albums/x374/IARG1/OutOfTime2003DvDRipXvidIARGavi_thumbs_20110626_121529.jpg&quot; rel=&quot;nofollow&quot; target=&quot;_NEW&quot;&gt;\nhttp://i1178.photobucket.com/albums/x374/IARG1/OutOfTime2003DvDRipXvidIARGavi_thumbs_20110626_121529.jpg&lt;/a&gt;\n\nDirector:\nCarl Franklin\n\nWriter:\nDavid Collard\n\nStars:\nDenzel Washington, Sanaa Lathan and Eva Mendes \n\n\nFormat                           : AVI\nFormat/Info                      : Audio Video Interleave\nFile size                        : 700 MiB\nDuration                         : 1h 45mn\nOverall bit rate                 : 929 Kbps\nWriting application              : VirtualDubMod 1.5.4.1 (build 2178/release)\nWriting library                  : VirtualDubMod build 2178/release\n\nVideo\nID                               : 0\nFormat                           : MPEG-4 Visual\nFormat profile                   : Advanced Simple@L5\nFormat settings, BVOP            : 1\nFormat settings, QPel            : No\nFormat settings, GMC             : No warppoints\nFormat settings, Matrix          : Custom\nCodec ID                         : XVID\nCodec ID/Hint                    : XviD\nDuration                         : 1h 45mn\nBit rate                         : 801 Kbps\nWidth                            : 624 pixels\nHeight                           : 272 pixels\nDisplay aspect ratio             : 2.25:1\nFrame rate                       : 23.976 fps\nColor space                      : YUV\nChroma subsampling               : 4:2:0\nBit depth                        : 8 bits\nScan type                        : Progressive\nCompression mode                 : Lossy\nBits/(Pixel*Frame)               : 0.197\nStream size                      : 604 MiB (86%)\nWriting library                  : XviD 64\n\nAudio\nID                               : 1\nFormat                           : MPEG Audio\nFormat version                   : Version 1\nFormat profile                   : Layer 3\nMode                             : Joint stereo\nMode extension                   : MS Stereo\nCodec ID                         : 55\nCodec ID/Hint                    : MP3\nDuration                         : 1h 45mn\nBit rate mode                    : Variable\nBit rate                         : 115 Kbps\nNominal bit rate                 : 128 Kbps\nChannel(s)                       : 2 channels\nSampling rate                    : 48.0 KHz\nCompression mode                 : Lossy\nStream size                      : 86.5 MiB (12%)\nAlignment                        : Aligned on interleaves\nInterleave, duration             : 24 ms (0.58 video frame)\nInterleave, preload duration     : 160 ms\nWriting library                  : LAME3.98r\nEncoding settings                : -m j -V 4 -q 2 -lowpass 17 --abr 128\nLanguage                         : English\n\n\n\n","torrent":{"xt":"urn:btih:c8b408e61f9978bc2c22af970c6b9740df598124","amp;dn":"Out.+Of.Time.2003.DvDRipXvid.IARG","amp;tr":["udp%3A%2F%2Ftracker.openbittorrent.com%3A80","udp%3A%2F%2Fopen.demonii.com%3A1337","udp%3A%2F%2Ftracker.coppersurfer.tk%3A6969","udp%3A%2F%2Fexodus.desync.com%3A6969"],"infoHash":"c8b408e61f9978bc2c22af970c6b9740df598124","infoHashBuffer":{"type":"Buffer","data":[200,180,8,230,31,153,120,188,44,34,175,151,12,107,151,64,223,89,129,36]},"announce":[],"urlList":[]}}